<svg xmlns="http://www.w3.org/2000/svg" width="16" height="16">
  <path fill="#000" d="M41.9375 8.625c-.664062.023438-1.273437.375-1.625.9375L21.5 38.34375 9.3125 27.8125c-.523437-.542969-1.308594-.746094-2.03125-.519531-.71875.222656-1.253906.832031-1.378906 1.574219-.125.746093.175781 1.496093.785156 1.945312L20.625 42.875c.4375.371094 1.015625.535156 1.582031.453125.570313-.085937 1.074219-.410156 1.386719-.890625L43.6875 11.75c.429688-.628906.464844-1.441406.09375-2.105469-.371094-.660156-1.085937-1.054687-1.84375-1.019531z"/>
</svg>
