<?xml version="1.0" standalone="no"?>
<!DOCTYPE svg PUBLIC "-//W3C//DTD SVG 20010904//EN"
 "http://www.w3.org/TR/2001/REC-SVG-20010904/DTD/svg10.dtd">
<svg version="1.0" xmlns="http://www.w3.org/2000/svg"
 width="16.000000pt" height="16.000000pt" viewBox="0 0 16.000000 16.000000"
 preserveAspectRatio="xMidYMid meet">
<metadata>
Created by potrace 1.11, written by Peter Selinger 2001-2013
</metadata>
<g transform="translate(0.000000,16.000000) scale(0.001667,-0.001667)"
fill="#000000" stroke="none">
<path d="M3730 7018 c-176 -19 -250 -59 -286 -156 -32 -85 -49 -106 -150 -183
-54 -42 -128 -108 -164 -145 -62 -65 -170 -204 -170 -218 0 -4 -5 -12 -10 -19
-6 -7 -26 -33 -45 -59 -60 -80 -161 -115 -280 -95 -22 3 -74 18 -115 32 -100
34 -186 53 -295 64 -98 10 -108 14 -205 81 -54 37 -74 45 -115 46 -63 2 -136
-17 -229 -59 -84 -39 -122 -76 -137 -132 -34 -122 -41 -137 -113 -213 -136
-146 -210 -258 -262 -397 -87 -233 -85 -508 5 -741 113 -292 368 -532 661
-622 159 -48 355 -58 532 -27 185 33 243 36 328 14 175 -46 313 -207 371 -434
18 -72 23 -116 22 -220 0 -144 -15 -218 -64 -321 -77 -162 -208 -248 -755
-496 -27 -12 -51 -22 -54 -23 -21 -2 -72 -44 -86 -70 -16 -30 -16 -34 0 -68
28 -58 81 -68 222 -43 44 8 93 17 109 20 17 2 75 12 130 21 133 21 143 23 195
30 25 3 52 8 60 10 8 2 38 7 65 10 28 3 61 7 75 10 14 2 48 6 75 10 28 3 77
10 110 15 33 5 91 11 128 15 37 3 76 8 85 10 9 1 51 6 92 10 41 4 82 9 90 10
14 2 140 13 240 20 25 2 83 7 130 10 151 12 173 13 330 22 197 10 895 10 1105
0 254 -13 405 -22 505 -32 25 -2 74 -7 110 -10 114 -11 142 -14 295 -30 83 -9
164 -18 180 -20 17 -3 100 -14 185 -25 178 -24 150 -20 390 -60 233 -40 220
-38 331 -59 103 -19 149 -15 182 18 28 28 27 84 -2 115 -23 25 -178 107 -455
243 -217 106 -254 129 -327 202 -71 71 -116 152 -144 257 -19 71 -27 259 -14
329 5 28 11 60 14 73 22 121 102 270 184 344 51 46 130 93 171 102 83 19 110
22 145 19 36 -2 165 -20 207 -28 49 -10 173 -18 248 -17 84 1 96 2 175 17 322
59 624 299 754 600 12 28 26 59 31 70 36 78 59 241 55 380 -4 132 -5 138 -29
240 -20 80 -20 80 -75 195 -48 99 -119 198 -210 292 -76 79 -86 96 -113 192
-11 39 -29 82 -41 94 -32 34 -94 69 -175 97 -142 50 -189 46 -281 -21 -77 -56
-114 -69 -216 -78 -85 -6 -197 -35 -333 -84 -168 -61 -282 -18 -380 143 -90
149 -207 280 -332 372 -92 67 -132 111 -158 179 -39 98 -71 124 -190 155 -90
23 -206 26 -253 6 -19 -8 -52 -34 -75 -58 -65 -72 -91 -87 -198 -120 -160 -50
-348 -156 -459 -260 -106 -99 -233 -122 -341 -60 -32 18 -93 62 -135 97 -132
113 -266 184 -430 228 -94 25 -143 53 -189 108 -58 68 -120 89 -232 76z m353
-552 c211 -70 359 -196 452 -384 50 -102 69 -190 68 -312 0 -121 -18 -201 -68
-306 -119 -249 -372 -407 -650 -407 -207 0 -379 75 -531 230 -30 31 -54 62
-54 69 0 8 -4 14 -9 14 -14 0 -87 158 -107 230 -33 121 -16 385 28 438 6 6 8
12 4 12 -18 0 77 155 139 229 62 72 227 170 332 195 32 8 67 17 78 20 11 3 70
3 130 1 84 -3 129 -10 188 -29z m1912 6 c212 -66 365 -206 458 -418 49 -111
66 -321 37 -437 -23 -89 -52 -153 -106 -238 -161 -250 -481 -377 -769 -305
-54 14 -79 23 -135 49 -189 87 -325 245 -390 452 -28 90 -35 244 -15 337 63
293 303 524 603 578 72 14 248 3 317 -18z m-3680 -597 c136 -37 225 -91 327
-198 37 -38 74 -84 83 -101 92 -174 110 -247 102 -411 -5 -128 -28 -208 -88
-318 -78 -143 -248 -275 -413 -322 -251 -70 -507 -3 -691 183 -304 305 -262
805 90 1061 164 119 393 161 590 106z m5345 14 c25 -5 56 -11 70 -14 14 -3 72
-28 129 -57 89 -45 113 -63 181 -136 130 -138 190 -283 195 -466 6 -226 -92
-435 -265 -565 -19 -14 -37 -29 -40 -32 -3 -4 -30 -20 -60 -37 -224 -123 -509
-110 -720 33 -170 115 -285 298 -307 489 -27 238 36 424 198 587 73 73 101 95
180 133 52 25 108 48 124 51 17 2 44 9 60 13 40 12 200 12 255 1z m-2669 -972
c41 -20 103 -55 138 -78 178 -113 336 -166 577 -194 109 -12 216 -52 284 -106
42 -32 90 -121 96 -176 6 -56 5 -144 -2 -178 -3 -16 -6 -37 -6 -45 0 -29 -37
-196 -59 -265 -44 -142 -137 -301 -230 -393 -86 -85 -258 -156 -429 -176 -163
-20 -732 -27 -938 -13 -394 28 -594 158 -742 482 -95 208 -134 511 -82 645 49
126 164 196 372 225 25 3 77 13 115 21 39 8 80 17 92 20 83 17 269 100 374
167 129 82 195 105 295 102 60 -1 83 -7 145 -38z"/>
</g>
</svg>
